<!--?xml version="1.0" standalone="no"?-->

<svg version="1.0" xmlns="http://www.w3.org/2000/svg" width="300.000000pt" height="275.000000pt" viewBox="0 0 300.000000 275.000000" preserveAspectRatio="xMidYMid meet">
<g transform="translate(0.000000,275.000000) scale(0.100000,-0.100000)" fill="#1B1B1B" stroke="none">
<path class="node" id="node1" d="M1865 2600 c-270 -60 -491 -195 -698 -428 -110 -123 -169 -221 -237
-387 -36 -91 -41 -115 -49 -265 l-6 -125 -30 -14 c-21 -11 -65 -15 -145 -16
-110 0 -118 1 -180 32 -76 38 -152 101 -188 158 -71 109 -92 166 -99 273 -11
149 99 340 262 454 48 34 146 83 210 106 74 26 73 24 35 33 -54 13 -167 0
-250 -29 -314 -106 -434 -402 -295 -726 28 -67 121 -179 192 -232 102 -77 185
-107 310 -112 60 -2 115 0 134 7 34 12 69 0 69 -24 0 -19 48 -112 82 -160 36
-50 105 -99 177 -126 102 -38 255 -7 374 77 26 19 50 34 53 34 3 0 30 20 58
45 56 47 83 58 71 28 -4 -10 -18 -57 -31 -105 -13 -48 -34 -109 -48 -135 -13
-27 -35 -77 -50 -111 -43 -108 -144 -260 -226 -342 -84 -83 -159 -126 -275
-155 -246 -61 -561 89 -681 326 -39 78 -54 131 -54 196 0 67 10 98 50 153 66
91 179 122 301 83 120 -39 206 -173 180 -280 -21 -80 -96 -174 -174 -214 -56
-29 -47 -42 25 -37 117 7 212 80 239 182 25 94 -24 234 -106 301 -114 94 -292
132 -400 85 -63 -27 -120 -82 -146 -139 -23 -53 -26 -179 -5 -219 7 -15 29
-61 47 -102 19 -41 59 -104 91 -141 54 -64 183 -169 207 -169 6 0 22 -6 34
-14 12 -8 58 -26 102 -40 69 -23 97 -26 215 -26 143 0 168 5 300 58 162 65
300 193 376 347 14 30 30 55 35 55 5 0 20 -17 33 -38 52 -83 129 -130 266
-163 30 -7 61 -17 67 -23 10 -9 5 -56 -25 -220 -28 -154 -35 -209 -26 -213 25
-9 97 2 105 17 4 8 12 40 18 70 6 30 17 89 25 130 8 41 20 104 25 138 6 35 15
70 21 77 6 7 32 15 58 19 49 7 117 27 128 39 4 4 13 7 20 7 25 0 151 89 205
145 80 84 143 195 168 298 15 66 14 232 -3 288 -38 124 -122 224 -211 249 -53
15 -142 7 -192 -17 -51 -24 -115 -92 -144 -154 -35 -73 -59 -148 -59 -182 0
-66 -79 -587 -91 -601 -16 -18 -81 6 -124 45 -105 96 -126 256 -69 514 9 39
25 90 36 114 42 93 133 192 212 231 48 23 41 45 -13 41 -24 -1 -51 -7 -60 -11
-9 -5 -52 -25 -95 -45 -69 -31 -133 -74 -186 -125 -191 -184 -369 -308 -489
-340 -144 -38 -284 70 -307 237 -10 80 -2 95 78 149 81 55 110 79 218 180 94
89 196 196 239 252 18 24 38 41 44 39 5 -1 11 -30 11 -63 2 -69 33 -132 90
-182 71 -62 198 -65 319 -8 169 80 361 343 391 533 9 61 16 79 30 81 25 5 92
-44 118 -86 28 -45 40 -133 27 -192 -20 -91 -115 -216 -220 -291 -33 -23 -38
-49 -10 -49 29 0 136 85 187 148 80 98 109 186 94 288 -14 102 -58 163 -155
217 -55 30 -61 37 -72 80 -14 57 -66 133 -113 165 -95 64 -271 86 -425 52z
m250 -26 c104 -14 181 -68 229 -161 30 -59 28 -60 -107 -59 -97 1 -132 -3
-167 -17 -93 -38 -187 -88 -245 -132 -66 -49 -262 -240 -304 -295 -55 -74
-290 -305 -371 -366 -82 -62 -120 -78 -120 -51 0 28 43 183 56 204 8 12 14 30
14 40 0 33 104 227 175 328 176 249 407 438 602 492 65 18 150 31 173 27 8 -2
38 -6 65 -10z m237 -272 c43 -37 -25 -248 -123 -382 -59 -81 -159 -178 -220
-213 -47 -28 -142 -57 -182 -57 -38 1 -103 36 -130 72 -41 53 -54 116 -38 190
7 35 17 69 23 76 6 7 18 25 27 41 21 38 84 106 146 157 84 69 208 123 305 134
84 9 171 1 192 -18z m163 -868 c69 -32 126 -141 133 -251 11 -178 -47 -346
-158 -452 -67 -64 -150 -110 -206 -114 -37 -2 -39 -1 -42 32 -4 34 31 278 48
342 6 20 10 59 10 86 0 69 36 229 63 283 23 44 76 90 104 90 8 0 30 -7 48 -16z"></path>
</g>
<g transform="translate(0.000000,275.000000) scale(0.100000,-0.100000)" fill="#A1A1A1" stroke="none">




</g>
</svg>